# xmcd
#
# Track frame offsets:
#   150
#   13958
#   28306
#   40818
#   60208
#   74880
#   92305
#   104628
#   118725
#   133345
#   145965
#   158774
#   175664
#   190719
#   206472
#   219604
#   230374
#   243564
#   257612
#   271572
#
# Disc length: 3810 seconds
#
# Revision: 0
# Processed by: cddbd v1.4PL0 Copyright (c) Steve Scherf et al.
# Submitted via: uFREEDB ActiveX Control 1.5
#
DISCID=220ee014
DTITLE=Ronaldo Viola and João Carvalho - As 20 Mais
DYEAR=2003
DGENRE=Country
TTITLE0=Paixão Goiana
TTITLE1=Rodeio Brasileiro
TTITLE2=Flor De Goias
TTITLE3=Carro De Boi
TTITLE4=Batidão Lascado
TTITLE5=Bsurdo De Bão
TTITLE6=Cópia Da Chave
TTITLE7=A Saudade É Meu Acalanto
TTITLE8=Viola Viva
TTITLE9=Pagode Do Grotão
TTITLE10=Viola Pagodeira
TTITLE11=Velho Pinga
TTITLE12=Meu Intinerário É Voce
TTITLE13=Volta Por Cima
TTITLE14=Dama Da Noite
TTITLE15=O Avião
TTITLE16=Baile Do Chamamé
TTITLE17=Paixão E Loucura
TTITLE18=Coração Da Natureza
TTITLE19=Sobrado Da Alegria
EXTD=
EXTT0=
EXTT1=
EXTT2=
EXTT3=
EXTT4=
EXTT5=
EXTT6=
EXTT7=
EXTT8=
EXTT9=
EXTT10=
EXTT11=
EXTT12=
EXTT13=
EXTT14=
EXTT15=
EXTT16=
EXTT17=
EXTT18=
EXTT19=
PLAYORDER=
